<svg width="38" height="32" viewBox="0 0 38 32" fill="none" xmlns="http://www.w3.org/2000/svg">
<path d="M14.7779 1.80952C14.7779 1.32961 14.5872 0.869348 14.2479 0.529997C13.9085 0.190645 13.4483 0 12.9683 0C12.4884 0 12.0282 0.190645 11.6888 0.529997C11.3495 0.869348 11.1588 1.32961 11.1588 1.80952V3.01587H14.7779V1.80952ZM8.14295 22.0159C7.24823 22.0159 6.37359 22.2812 5.62966 22.7783C4.88572 23.2754 4.30589 23.9819 3.9635 24.8085C3.6211 25.6351 3.53151 26.5447 3.70607 27.4222C3.88062 28.2998 4.31147 29.1058 4.94414 29.7385C5.5768 30.3712 6.38287 30.802 7.2604 30.9766C8.13793 31.1511 9.04752 31.0615 9.87414 30.7191C10.7008 30.3767 11.4073 29.7969 11.9044 29.053C12.4014 28.309 12.6668 27.4344 12.6668 26.5397C12.6654 25.3403 12.1884 24.1904 11.3403 23.3424C10.4922 22.4943 9.34232 22.0172 8.14295 22.0159ZM8.14295 28.3492C7.78506 28.3492 7.43521 28.2431 7.13763 28.0442C6.84006 27.8454 6.60813 27.5628 6.47117 27.2322C6.33421 26.9015 6.29838 26.5377 6.3682 26.1867C6.43802 25.8356 6.61036 25.5132 6.86342 25.2602C7.11649 25.0071 7.43892 24.8347 7.78993 24.7649C8.14094 24.6951 8.50478 24.7309 8.83543 24.8679C9.16607 25.0049 9.44868 25.2368 9.64752 25.5344C9.84635 25.8319 9.95248 26.1818 9.95248 26.5397C9.95248 27.0196 9.76183 27.4799 9.42248 27.8192C9.08313 28.1586 8.62287 28.3492 8.14295 28.3492ZM31.0636 22.0159C30.1689 22.0159 29.2942 22.2812 28.5503 22.7783C27.8064 23.2754 27.2265 23.9819 26.8841 24.8085C26.5417 25.6351 26.4521 26.5447 26.6267 27.4222C26.8013 28.2998 27.2321 29.1058 27.8648 29.7385C28.4974 30.3712 29.3035 30.802 30.181 30.9766C31.0586 31.1511 31.9682 31.0615 32.7948 30.7191C33.6214 30.3767 34.3279 29.7969 34.825 29.053C35.3221 28.309 35.5874 27.4344 35.5874 26.5397C35.586 25.3403 35.109 24.1904 34.2609 23.3424C33.4128 22.4943 32.263 22.0172 31.0636 22.0159ZM31.0636 28.3492C30.7057 28.3492 30.3558 28.2431 30.0583 28.0442C29.7607 27.8454 29.5288 27.5628 29.3918 27.2322C29.2548 26.9015 29.219 26.5377 29.2888 26.1867C29.3587 25.8356 29.531 25.5132 29.7841 25.2602C30.0371 25.0071 30.3596 24.8347 30.7106 24.7649C31.0616 24.6951 31.4254 24.7309 31.7561 24.8679C32.0867 25.0049 32.3693 25.2368 32.5681 25.5344C32.767 25.8319 32.8731 26.1818 32.8731 26.5397C32.8731 27.0196 32.6825 27.4799 32.3431 27.8192C32.0038 28.1586 31.5435 28.3492 31.0636 28.3492Z" fill="#020200"/>
<path d="M36.9996 18.2423L32.8956 16.1901C32.1948 15.1071 29.0604 10.2744 28.1632 9.10126C28.0787 8.99081 27.97 8.90131 27.8453 8.8397C27.7207 8.7781 27.5835 8.74606 27.4444 8.74607H23.1782L21.5158 5.42107C21.2917 4.9691 20.9455 4.58896 20.5164 4.32376C20.0873 4.05856 19.5924 3.91892 19.088 3.92067H1.80952C1.32978 3.92123 0.869845 4.11205 0.530614 4.45129C0.191384 4.79052 0.000558724 5.25045 0 5.73019V24.7302C0.000798257 25.4498 0.287023 26.1397 0.795877 26.6486C1.30473 27.1575 1.99466 27.4437 2.71428 27.4445H2.79111C2.65869 26.6657 2.6978 25.8675 2.90573 25.1054C3.11366 24.3434 3.48539 23.6359 3.99498 23.0323C4.50456 22.4288 5.13973 21.9437 5.85614 21.611C6.57255 21.2782 7.35294 21.1058 8.14285 21.1058C8.93277 21.1058 9.71316 21.2782 10.4296 21.611C11.146 21.9437 11.7811 22.4288 12.2907 23.0323C12.8003 23.6359 13.172 24.3434 13.38 25.1054C13.5879 25.8675 13.627 26.6657 13.4946 27.4445H25.7117C25.581 26.6767 25.6169 25.8898 25.8171 25.1372C26.0173 24.3846 26.3771 23.6838 26.8721 23.0826C27.3671 22.4813 27.9857 21.9936 28.6858 21.6525C29.386 21.3114 30.1513 21.125 30.9299 21.1059C31.7085 21.0868 32.482 21.2354 33.1981 21.5417C33.9141 21.8479 34.5559 22.3047 35.0798 22.8809C35.6037 23.4572 35.9975 24.1394 36.2345 24.8813C36.4714 25.6232 36.5459 26.4073 36.453 27.1806C36.9158 26.9597 37.3066 26.6124 37.5804 26.1788C37.8541 25.7452 37.9996 25.243 38 24.7302V19.8608C38.0011 19.5245 37.908 19.1946 37.7312 18.9085C37.5544 18.6224 37.3009 18.3916 36.9996 18.2423ZM17.7936 14.1746C17.7936 14.4146 17.6983 14.6447 17.5286 14.8144C17.359 14.9841 17.1288 15.0794 16.8889 15.0794H14.7778V17.1905C14.7778 17.4305 14.6825 17.6606 14.5128 17.8303C14.3431 17.9999 14.113 18.0953 13.873 18.0953H12.0635C11.8235 18.0953 11.5934 17.9999 11.4237 17.8303C11.2541 17.6606 11.1587 17.4305 11.1587 17.1905V15.0794H9.04762C8.80766 15.0794 8.57753 14.9841 8.40785 14.8144C8.23818 14.6447 8.14285 14.4146 8.14285 14.1746V12.3651C8.14285 12.1252 8.23818 11.895 8.40785 11.7254C8.57753 11.5557 8.80766 11.4604 9.04762 11.4604H11.1587V9.34924C11.1587 9.10928 11.2541 8.87915 11.4237 8.70948C11.5934 8.5398 11.8235 8.44448 12.0635 8.44448H13.873C14.113 8.44448 14.3431 8.5398 14.5128 8.70948C14.6825 8.87915 14.7778 9.10928 14.7778 9.34924V11.4604H16.8889C17.1288 11.4604 17.359 11.5557 17.5286 11.7254C17.6983 11.895 17.7936 12.1252 17.7936 12.3651V14.1746ZM26.2381 20.2064H25.1071C24.8672 20.2064 24.637 20.1111 24.4674 19.9414C24.2977 19.7717 24.2024 19.5416 24.2024 19.3016C24.2024 19.0617 24.2977 18.8315 24.4674 18.6619C24.637 18.4922 24.8672 18.3969 25.1071 18.3969H26.2381C26.478 18.3969 26.7082 18.4922 26.8779 18.6619C27.0475 18.8315 27.1429 19.0617 27.1429 19.3016C27.1429 19.5416 27.0475 19.7717 26.8779 19.9414C26.7082 20.1111 26.478 20.2064 26.2381 20.2064ZM30.9677 16.3611H25.0317C24.7918 16.3611 24.5617 16.2658 24.392 16.0961C24.2223 15.9265 24.127 15.6963 24.127 15.4564V10.8572C24.127 10.6172 24.2223 10.3871 24.392 10.2174C24.5617 10.0477 24.7918 9.95242 25.0317 9.95242H27.0901C27.2375 9.95241 27.3826 9.98843 27.513 10.0573C27.6433 10.1262 27.7548 10.2259 27.8378 10.3477C28.931 11.9498 30.5425 14.422 31.3477 15.6627C31.3919 15.7311 31.4169 15.8101 31.4201 15.8914C31.4232 15.9727 31.4043 16.0534 31.3654 16.1249C31.3265 16.1964 31.269 16.2561 31.199 16.2977C31.129 16.3393 31.0491 16.3612 30.9677 16.3611Z" fill="#020200"/>
</svg>
